<?xml version="1.0" encoding="UTF-8" standalone="no"?>
<!-- Created with Inkscape (http://www.inkscape.org/) -->

<svg
   xmlns:dc="http://purl.org/dc/elements/1.1/"
   xmlns:cc="http://creativecommons.org/ns#"
   xmlns:rdf="http://www.w3.org/1999/02/22-rdf-syntax-ns#"
   xmlns:svg="http://www.w3.org/2000/svg"
   xmlns="http://www.w3.org/2000/svg"
   xmlns:sodipodi="http://sodipodi.sourceforge.net/DTD/sodipodi-0.dtd"
   xmlns:inkscape="http://www.inkscape.org/namespaces/inkscape"
   width="61.153889mm"
   height="8.2010603mm"
   viewBox="0 0 61.153889 8.2010603"
   version="1.1"
   id="svg8"
   inkscape:version="0.92.5 (2060ec1f9f, 2020-04-08)"
   sodipodi:docname="drawing.svg">
  <defs
     id="defs2" />
  <sodipodi:namedview
     id="base"
     pagecolor="#ffffff"
     bordercolor="#666666"
     borderopacity="1.0"
     inkscape:pageopacity="0.0"
     inkscape:pageshadow="2"
     inkscape:zoom="2.8"
     inkscape:cx="122.82311"
     inkscape:cy="20.817779"
     inkscape:document-units="mm"
     inkscape:current-layer="text3715"
     showgrid="false"
     inkscape:window-width="1366"
     inkscape:window-height="705"
     inkscape:window-x="-8"
     inkscape:window-y="-8"
     inkscape:window-maximized="1" />
  <metadata
     id="metadata5">
    <rdf:RDF>
      <cc:Work
         rdf:about="">
        <dc:format>image/svg+xml</dc:format>
        <dc:type
           rdf:resource="http://purl.org/dc/dcmitype/StillImage" />
        <dc:title></dc:title>
      </cc:Work>
    </rdf:RDF>
  </metadata>
  <g
     inkscape:label="Layer 1"
     inkscape:groupmode="layer"
     id="layer1"
     transform="translate(-26.07445,-117.73593)">
    <g
       aria-label="MedicalCRM"
       style="font-style:normal;font-weight:normal;font-size:10.58333302px;line-height:1.25;font-family:sans-serif;letter-spacing:0px;word-spacing:0px;fill:#000000;fill-opacity:1;stroke:none;stroke-width:0.26458332"
       id="text3715"
       transform="translate(-0.37797619,0.75595235)">
      <path
         d="m 33.304721,125.02083 h -1.023193 v -6.63009 l -2.139405,4.51135 h -0.609781 l -2.123902,-4.51135 v 6.63009 h -0.956014 v -7.69462 h 1.395264 l 2.051554,4.28397 1.984375,-4.28397 h 1.421102 z"
         style="stroke-width:0.26458332"
         id="path4608"
         inkscape:connector-curvature="0" />
      <path
         d="m 40.136345,122.23547 h -4.25297 q 0,0.53227 0.160197,0.93017 0.160197,0.39275 0.43925,0.64596 0.268717,0.24805 0.63562,0.37207 0.37207,0.12402 0.816487,0.12402 0.589112,0 1.183391,-0.23254 0.599446,-0.23771 0.852661,-0.46509 h 0.05168 v 1.05937 q -0.490926,0.2067 -1.002523,0.34623 -0.511596,0.13953 -1.074869,0.13953 -1.436605,0 -2.242757,-0.77515 -0.806153,-0.78031 -0.806153,-2.21175 0,-1.41593 0.769979,-2.24793 0.775147,-0.83199 2.036051,-0.83199 1.167888,0 1.79834,0.68213 0.63562,0.68213 0.63562,1.93787 z m -0.945678,-0.74414 q -0.0052,-0.76481 -0.387574,-1.18339 -0.377237,-0.41858 -1.152384,-0.41858 -0.780314,0 -1.245402,0.45992 -0.45992,0.45992 -0.521932,1.14205 z"
         style="stroke-width:0.26458332"
         id="path4610"
         inkscape:connector-curvature="0" />
      <path
         d="m 46.291008,125.02083 h -0.971517 v -0.60462 q -0.418579,0.36174 -0.873331,0.56328 -0.454753,0.20154 -0.98702,0.20154 -1.033529,0 -1.643311,-0.79582 -0.604614,-0.79582 -0.604614,-2.20659 0,-0.7338 0.206706,-1.30741 0.211873,-0.57361 0.56844,-0.97668 0.3514,-0.39274 0.816488,-0.59945 0.470256,-0.20671 0.971517,-0.20671 0.454753,0 0.806152,0.0982 0.3514,0.093 0.738973,0.29455 v -2.50113 h 0.971517 z m -0.971517,-1.4211 v -3.31246 q -0.392741,-0.1757 -0.702799,-0.24288 -0.310059,-0.0672 -0.676961,-0.0672 -0.816488,0 -1.271241,0.56844 -0.454752,0.56844 -0.454752,1.6123 0,1.02836 0.351399,1.5658 0.3514,0.53227 1.126547,0.53227 0.413411,0 0.837158,-0.18087 0.423747,-0.18604 0.790649,-0.47542 z"
         style="stroke-width:0.26458332"
         id="path4612"
         inkscape:connector-curvature="0" />
      <path
         d="m 49.2469,118.28222 h -1.09554 v -1.00769 h 1.09554 z m -0.06201,6.73861 h -0.971517 v -5.77226 h 0.971517 z"
         style="stroke-width:0.26458332"
         id="path4614"
         inkscape:connector-curvature="0" />
      <path
         d="m 55.386061,124.65909 q -0.485759,0.23255 -0.925009,0.36174 -0.434082,0.12919 -0.925008,0.12919 -0.625284,0 -1.147216,-0.18087 -0.521932,-0.18603 -0.894003,-0.5581 -0.377238,-0.37207 -0.583943,-0.94051 -0.206706,-0.56845 -0.206706,-1.32809 0,-1.41593 0.775146,-2.22209 0.780314,-0.80615 2.056722,-0.80615 0.496094,0 0.971517,0.13953 0.480591,0.13952 0.8785,0.34106 v 1.08004 h -0.05168 q -0.444417,-0.34623 -0.91984,-0.53227 -0.470256,-0.18603 -0.919841,-0.18603 -0.826823,0 -1.307414,0.5581 -0.475423,0.55294 -0.475423,1.62781 0,1.04386 0.465088,1.60714 0.470256,0.5581 1.317749,0.5581 0.294556,0 0.599447,-0.0775 0.304891,-0.0775 0.54777,-0.20154 0.211873,-0.10852 0.397908,-0.22738 0.186036,-0.12402 0.294556,-0.21187 h 0.05168 z"
         style="stroke-width:0.26458332"
         id="path4616"
         inkscape:connector-curvature="0" />
      <path
         d="m 61.122145,125.02083 h -0.96635 v -0.61495 q -0.129191,0.0879 -0.351399,0.24805 -0.217041,0.15502 -0.423747,0.24804 -0.242879,0.11886 -0.558106,0.19637 -0.315226,0.0827 -0.738973,0.0827 -0.780314,0 -1.322916,-0.51677 -0.542603,-0.51676 -0.542603,-1.31775 0,-0.65629 0.279053,-1.05936 0.28422,-0.40825 0.806152,-0.64079 0.5271,-0.23255 1.266073,-0.31523 0.738973,-0.0827 1.586466,-0.12402 v -0.14986 q 0,-0.33073 -0.118856,-0.54777 -0.113688,-0.21705 -0.330729,-0.34107 -0.206705,-0.11885 -0.496093,-0.1602 -0.289388,-0.0413 -0.604615,-0.0413 -0.382405,0 -0.852661,0.10336 -0.470255,0.0982 -0.971517,0.28938 h -0.05168 v -0.98702 q 0.28422,-0.0775 0.821655,-0.17053 0.537435,-0.093 1.059367,-0.093 0.609782,0 1.059367,0.10336 0.454752,0.0982 0.785482,0.34106 0.325561,0.23771 0.496093,0.61495 0.170533,0.37724 0.170533,0.93534 z m -0.96635,-1.4211 v -1.60714 q -0.444417,0.0258 -1.049031,0.0775 -0.599447,0.0517 -0.950847,0.14987 -0.418579,0.11885 -0.676961,0.37207 -0.258382,0.24804 -0.258382,0.68729 0,0.4961 0.299723,0.74931 0.299724,0.24805 0.914673,0.24805 0.511597,0 0.935344,-0.19637 0.423746,-0.20154 0.785481,-0.48059 z"
         style="stroke-width:0.26458332"
         id="path4618"
         inkscape:connector-curvature="0" />
      <path
         d="m 63.985018,125.02083 h -0.971517 v -8.04085 h 0.971517 z"
         style="stroke-width:0.26458332"
         id="path4620"
         inkscape:connector-curvature="0" />
      <path
         d="m 71.93802,124.46272 q -0.28422,0.12403 -0.516764,0.23255 -0.227376,0.10852 -0.599446,0.22737 -0.315227,0.0982 -0.687297,0.16537 -0.366903,0.0723 -0.81132,0.0723 -0.837158,0 -1.524455,-0.23254 -0.682128,-0.23771 -1.188558,-0.73897 -0.496093,-0.49093 -0.775146,-1.2454 -0.279053,-0.75965 -0.279053,-1.76217 0,-0.95085 0.268718,-1.70016 0.268717,-0.7493 0.775146,-1.26607 0.490926,-0.50126 1.18339,-0.76481 0.697632,-0.26355 1.545126,-0.26355 0.620117,0 1.235066,0.14986 0.620118,0.14986 1.374593,0.5271 v 1.2144 h -0.07751 q -0.63562,-0.53227 -1.260905,-0.77515 -0.625285,-0.24288 -1.33842,-0.24288 -0.583943,0 -1.054199,0.19121 -0.465088,0.18603 -0.83199,0.58394 -0.356568,0.38757 -0.558106,0.98185 -0.19637,0.58911 -0.19637,1.36426 0,0.81132 0.217041,1.39526 0.222208,0.58395 0.568441,0.95085 0.361735,0.3824 0.842325,0.56844 0.485759,0.18087 1.023194,0.18087 0.738973,0 1.384928,-0.25322 0.645955,-0.25321 1.209228,-0.75964 h 0.07235 z"
         style="fill:#389cd2;fill-opacity:1"
         id="path4622"
         inkscape:connector-curvature="0" />
      <path
         d="m 79.761834,125.02083 h -1.328085 l -2.573486,-3.05925 h -1.441772 v 3.05925 h -1.023194 v -7.69462 h 2.154907 q 0.697632,0 1.16272,0.093 0.465088,0.0879 0.837158,0.32039 0.418579,0.26355 0.651123,0.66663 0.237712,0.3979 0.237712,1.01285 0,0.83199 -0.418579,1.39527 -0.418579,0.5581 -1.152385,0.84232 z m -2.392619,-5.52938 q 0,-0.33073 -0.118856,-0.58394 -0.113688,-0.25839 -0.382406,-0.43409 -0.222208,-0.14986 -0.527099,-0.2067 -0.304891,-0.062 -0.718302,-0.062 h -1.204061 v 2.90421 h 1.033528 q 0.485759,0 0.847494,-0.0827 0.361735,-0.0879 0.614949,-0.32039 0.232544,-0.21704 0.341065,-0.4961 0.113688,-0.28422 0.113688,-0.7183 z"
         style="fill:#389cd2;fill-opacity:1"
         id="path4624"
         inkscape:connector-curvature="0" />
      <path
         d="m 87.606315,125.02083 h -1.023194 v -6.63009 l -2.139404,4.51135 h -0.609782 l -2.123901,-4.51135 v 6.63009 H 80.75402 v -7.69462 h 1.395264 l 2.051554,4.28397 1.984375,-4.28397 h 1.421102 z"
         style="fill:#389cd2;fill-opacity:1"
         id="path4626"
         inkscape:connector-curvature="0" />
    </g>
  </g>
</svg>
